<svg xmlns="http://www.w3.org/2000/svg" xmlns:xlink="http://www.w3.org/1999/xlink" width="45" zoomAndPan="magnify" viewBox="0 0 33.75 33.749999" height="45" preserveAspectRatio="xMidYMid meet" version="1.0"><defs><clipPath id="cce7a9849b"><path d="M 3.953125 1.738281 L 29.453125 1.738281 L 29.453125 31.738281 L 3.953125 31.738281 Z M 3.953125 1.738281 " clip-rule="nonzero"/></clipPath></defs><g clip-path="url(#cce7a9849b)"><path fill="#000000" d="M 22.921875 11.753906 L 21.226562 11.753906 L 22.234375 10.582031 C 22.464844 10.636719 22.703125 10.667969 22.953125 10.667969 C 24.640625 10.667969 26.015625 9.292969 26.027344 7.601562 C 26.035156 5.898438 24.664062 4.507812 22.953125 4.5 C 21.269531 4.5 19.890625 5.875 19.882812 7.566406 C 19.878906 8 19.96875 8.433594 20.140625 8.828125 L 17.664062 11.753906 L 16.578125 11.753906 L 13.480469 7.910156 C 13.871094 7.277344 14.085938 6.546875 14.09375 5.796875 C 14.101562 4.71875 13.6875 3.703125 12.933594 2.9375 C 12.179688 2.167969 11.175781 1.746094 10.078125 1.738281 C 7.878906 1.738281 6.074219 3.535156 6.0625 5.75 C 6.054688 6.828125 6.464844 7.84375 7.21875 8.609375 C 7.972656 9.378906 8.980469 9.804688 10.078125 9.8125 C 10.363281 9.8125 10.648438 9.78125 10.925781 9.722656 L 12.554688 11.761719 L 10.476562 11.761719 C 7.539062 11.753906 3.957031 12.644531 3.957031 18.742188 L 3.957031 25.1875 C 3.957031 28.789062 6.890625 31.738281 10.480469 31.738281 L 22.921875 31.738281 C 26.507812 31.738281 29.445312 28.789062 29.445312 25.1875 L 29.445312 18.742188 C 29.445312 13.324219 25.859375 11.753906 22.921875 11.753906 Z M 23.578125 27.953125 L 9.828125 27.953125 C 8.816406 27.953125 7.960938 27.09375 7.960938 26.078125 L 7.96875 18.742188 L 7.96875 17.621094 C 8.007812 16.636719 8.839844 15.816406 9.828125 15.816406 L 23.578125 15.816406 C 24.585938 15.816406 25.441406 16.671875 25.441406 17.6875 L 25.433594 25.03125 L 25.441406 25.03125 L 25.441406 26.078125 C 25.441406 27.09375 24.585938 27.953125 23.578125 27.953125 Z M 23.578125 27.953125 " fill-opacity="1" fill-rule="nonzero"/></g><path fill="#ffc500" d="M 13.925781 24.054688 C 13.917969 22.867188 13.910156 20.917969 13.90625 19.726562 C 13.898438 18.539062 14.785156 18.046875 15.796875 18.632812 C 16.808594 19.226562 18.5 20.1875 19.511719 20.78125 C 20.523438 21.371094 20.546875 22.34375 19.539062 22.945312 C 18.53125 23.546875 16.828125 24.527344 15.820312 25.125 C 14.816406 25.730469 13.929688 25.246094 13.925781 24.054688 Z M 13.925781 24.054688 " fill-opacity="1" fill-rule="nonzero"/></svg>